<svg width="241" height="39" viewBox="0 0 241 39" fill="none" xmlns="http://www.w3.org/2000/svg">
<path fill-rule="evenodd" clip-rule="evenodd" d="M32.6352 21.1601H38.1196C37.3816 30.5411 29.8698 38.0176 20.4734 38.7005L20.4734 33.2193C26.852 32.567 31.9302 27.5229 32.6352 21.1601ZM17.6629 33.2193C11.2843 32.567 6.20605 27.5229 5.50108 21.1601H0.0166493C0.754709 30.5411 8.26654 38.0176 17.6629 38.7005V33.2193ZM19.0681 0.529297C19.1153 0.529297 19.1624 0.529468 19.2095 0.529809L18.9268 0.529809C18.9738 0.529468 19.021 0.529297 19.0681 0.529297ZM0 18.3496C0.632738 8.86154 8.19018 1.26859 17.6629 0.580172V6.0607C11.2078 6.7208 6.08429 11.8788 5.47759 18.3496H0Z" fill="#FF3040"/>
<path d="M21.4158 21.4817L17.1796 17.2455L28.1602 6.09764H20.5797V0.300781H38.4163V18.0816H32.3407V10.5568L21.4158 21.4817Z" fill="#FF3040"/>
<path d="M56.9291 30.501V8.68279H60.8815V27.1878H70.4909V30.501H56.9291ZM73.7508 30.501V14.1373H77.6074V30.501H73.7508ZM75.6897 11.8149C75.0789 11.8149 74.5534 11.6125 74.113 11.2077C73.6727 10.7957 73.4525 10.3021 73.4525 9.72683C73.4525 9.14444 73.6727 8.65083 74.113 8.246C74.5534 7.83407 75.0789 7.62811 75.6897 7.62811C76.3076 7.62811 76.8332 7.83407 77.2664 8.246C77.7068 8.65083 77.927 9.14444 77.927 9.72683C77.927 10.3021 77.7068 10.7957 77.2664 11.2077C76.8332 11.6125 76.3076 11.8149 75.6897 11.8149ZM89.8614 14.1373V17.1203H80.1881V14.1373H89.8614ZM82.6065 30.501V12.5926C82.6065 11.4917 82.8337 10.5755 83.2883 9.84402C83.7499 9.11248 84.3678 8.56561 85.142 8.20339C85.9161 7.84117 86.7755 7.66007 87.7201 7.66007C88.3877 7.66007 88.9808 7.71333 89.4992 7.81987C90.0177 7.9264 90.4012 8.02228 90.6498 8.10751L89.8827 11.0905C89.7194 11.0407 89.5134 10.991 89.2648 10.9413C89.0163 10.8845 88.7393 10.8561 88.4339 10.8561C87.7166 10.8561 87.2087 11.0301 86.9104 11.3781C86.6193 11.719 86.4737 12.2091 86.4737 12.8483V30.501H82.6065ZM101.053 14.1373V17.1203H91.6459V14.1373H101.053ZM93.9683 10.2169H97.8249V25.5791C97.8249 26.0976 97.903 26.4953 98.0592 26.7723C98.2226 27.0422 98.4357 27.2268 98.6984 27.3263C98.9612 27.4257 99.2524 27.4754 99.572 27.4754C99.8135 27.4754 100.034 27.4577 100.233 27.4221C100.438 27.3866 100.595 27.3547 100.701 27.3263L101.351 30.3412C101.145 30.4122 100.85 30.4903 100.467 30.5756C100.09 30.6608 99.6288 30.7105 99.082 30.7247C98.1161 30.7531 97.246 30.6075 96.4719 30.2879C95.6977 29.9612 95.0834 29.4569 94.6288 28.7751C94.1814 28.0933 93.9612 27.241 93.9683 26.2183V10.2169Z" fill="#1A1C1E"/>
<path d="M109.336 8.68279V30.501H105.383V8.68279H109.336ZM117.302 20.9129V30.501H113.445V14.1373H117.131V16.9179H117.323C117.7 16.0017 118.3 15.2737 119.124 14.7339C119.955 14.1942 120.981 13.9243 122.202 13.9243C123.332 13.9243 124.315 14.1657 125.153 14.6487C125.999 15.1317 126.652 15.8312 127.114 16.7474C127.582 17.6636 127.813 18.7751 127.806 20.0819V30.501H123.95V20.6785C123.95 19.5848 123.665 18.729 123.097 18.1111C122.536 17.4932 121.759 17.1842 120.764 17.1842C120.089 17.1842 119.489 17.3334 118.964 17.6317C118.445 17.9229 118.037 18.3454 117.739 18.8994C117.447 19.4534 117.302 20.1246 117.302 20.9129ZM140.015 14.1373V17.1203H130.342V14.1373H140.015ZM132.76 30.501V12.5926C132.76 11.4917 132.987 10.5755 133.442 9.84402C133.903 9.11248 134.521 8.56561 135.295 8.20339C136.07 7.84117 136.929 7.66007 137.874 7.66007C138.541 7.66007 139.134 7.71333 139.653 7.81987C140.171 7.9264 140.555 8.02228 140.803 8.10751L140.036 11.0905C139.873 11.0407 139.667 10.991 139.418 10.9413C139.17 10.8845 138.893 10.8561 138.587 10.8561C137.87 10.8561 137.362 11.0301 137.064 11.3781C136.773 11.719 136.627 12.2091 136.627 12.8483V30.501H132.76ZM146.892 8.68279V30.501H143.035V8.68279H146.892ZM161.287 23.6189V14.1373H165.144V30.501H161.404V27.5926H161.234C160.865 28.5088 160.257 29.2581 159.412 29.8405C158.574 30.4229 157.541 30.714 156.312 30.714C155.24 30.714 154.291 30.4761 153.468 30.0003C152.651 29.5173 152.012 28.8177 151.55 27.9015C151.088 26.9782 150.857 25.8632 150.857 24.5564V14.1373H154.714V23.9598C154.714 24.9967 154.998 25.8206 155.566 26.4314C156.134 27.0422 156.88 27.3476 157.803 27.3476C158.372 27.3476 158.922 27.2091 159.455 26.9321C159.987 26.6551 160.424 26.2432 160.765 25.6963C161.113 25.1423 161.287 24.4498 161.287 23.6189ZM176.354 30.8206C174.713 30.8206 173.296 30.4797 172.103 29.7979C170.917 29.1089 170.004 28.1359 169.365 26.8788C168.726 25.6146 168.406 24.1267 168.406 22.415C168.406 20.7318 168.726 19.2545 169.365 17.9832C170.011 16.7048 170.913 15.7105 172.071 15.0003C173.229 14.2829 174.589 13.9243 176.151 13.9243C177.16 13.9243 178.112 14.0876 179.006 14.4143C179.908 14.7339 180.704 15.2311 181.393 15.9058C182.089 16.5805 182.636 17.4399 183.033 18.4839C183.431 19.5209 183.63 20.7567 183.63 22.1913V23.3738H170.217V20.7744H179.933C179.926 20.0358 179.766 19.3788 179.454 18.8035C179.141 18.2211 178.705 17.7631 178.143 17.4292C177.589 17.0954 176.943 16.9285 176.205 16.9285C175.416 16.9285 174.724 17.1203 174.127 17.5038C173.531 17.8802 173.065 18.3774 172.732 18.9953C172.405 19.6061 172.238 20.2773 172.231 21.0088V23.278C172.231 24.2297 172.405 25.0464 172.753 25.7282C173.101 26.403 173.587 26.9214 174.212 27.2836C174.837 27.6388 175.569 27.8163 176.407 27.8163C176.968 27.8163 177.476 27.7382 177.93 27.5819C178.385 27.4186 178.779 27.1807 179.113 26.8682C179.447 26.5557 179.699 26.1686 179.869 25.7069L183.47 26.1118C183.243 27.0635 182.81 27.8944 182.17 28.6047C181.538 29.3078 180.729 29.8547 179.741 30.2453C178.754 30.6288 177.625 30.8206 176.354 30.8206ZM190.749 20.9129V30.501H186.893V14.1373H190.579V16.9179H190.77C191.147 16.0017 191.747 15.2737 192.571 14.7339C193.402 14.1942 194.428 13.9243 195.65 13.9243C196.779 13.9243 197.763 14.1657 198.601 14.6487C199.446 15.1317 200.099 15.8312 200.561 16.7474C201.03 17.6636 201.26 18.7751 201.253 20.0819V30.501H197.397V20.6785C197.397 19.5848 197.113 18.729 196.545 18.1111C195.983 17.4932 195.206 17.1842 194.211 17.1842C193.537 17.1842 192.937 17.3334 192.411 17.6317C191.893 17.9229 191.484 18.3454 191.186 18.8994C190.895 19.4534 190.749 20.1246 190.749 20.9129ZM212.312 30.8206C210.678 30.8206 209.275 30.4619 208.104 29.7446C206.939 29.0273 206.04 28.0365 205.408 26.7723C204.783 25.501 204.471 24.0379 204.471 22.3831C204.471 20.7211 204.79 19.2545 205.43 17.9832C206.069 16.7048 206.971 15.7105 208.135 15.0003C209.307 14.2829 210.692 13.9243 212.29 13.9243C213.618 13.9243 214.794 14.1693 215.817 14.6594C216.846 15.1423 217.667 15.8277 218.278 16.7155C218.888 17.5961 219.236 18.626 219.322 19.805H215.635C215.486 19.0166 215.131 18.3596 214.57 17.8341C214.016 17.3014 213.274 17.0351 212.344 17.0351C211.555 17.0351 210.863 17.2481 210.266 17.6743C209.67 18.0933 209.204 18.697 208.871 19.4854C208.544 20.2737 208.381 21.2183 208.381 22.3192C208.381 23.4342 208.544 24.393 208.871 25.1956C209.197 25.991 209.655 26.6054 210.245 27.0386C210.841 27.4648 211.541 27.6778 212.344 27.6778C212.912 27.6778 213.42 27.5713 213.867 27.3582C214.322 27.1381 214.702 26.822 215.007 26.4101C215.312 25.9981 215.522 25.4974 215.635 24.9079H219.322C219.229 26.0656 218.888 27.0919 218.299 27.9868C217.709 28.8746 216.907 29.5706 215.891 30.0748C214.876 30.572 213.682 30.8206 212.312 30.8206ZM229.733 30.8206C228.092 30.8206 226.675 30.4797 225.482 29.7979C224.296 29.1089 223.383 28.1359 222.744 26.8788C222.105 25.6146 221.785 24.1267 221.785 22.415C221.785 20.7318 222.105 19.2545 222.744 17.9832C223.39 16.7048 224.292 15.7105 225.45 15.0003C226.608 14.2829 227.968 13.9243 229.53 13.9243C230.539 13.9243 231.49 14.0876 232.385 14.4143C233.287 14.7339 234.083 15.2311 234.772 15.9058C235.468 16.5805 236.015 17.4399 236.412 18.4839C236.81 19.5209 237.009 20.7567 237.009 22.1913V23.3738H223.596V20.7744H233.312C233.305 20.0358 233.145 19.3788 232.833 18.8035C232.52 18.2211 232.083 17.7631 231.522 17.4292C230.968 17.0954 230.322 16.9285 229.583 16.9285C228.795 16.9285 228.103 17.1203 227.506 17.5038C226.909 17.8802 226.444 18.3774 226.11 18.9953C225.784 19.6061 225.617 20.2773 225.61 21.0088V23.278C225.61 24.2297 225.784 25.0464 226.132 25.7282C226.48 26.403 226.966 26.9214 227.591 27.2836C228.216 27.6388 228.948 27.8163 229.786 27.8163C230.347 27.8163 230.855 27.7382 231.309 27.5819C231.764 27.4186 232.158 27.1807 232.492 26.8682C232.826 26.5557 233.078 26.1686 233.248 25.7069L236.849 26.1118C236.622 27.0635 236.189 27.8944 235.549 28.6047C234.917 29.3078 234.108 29.8547 233.12 30.2453C232.133 30.6288 231.004 30.8206 229.733 30.8206Z" fill="#1A1C1E"/>
</svg>
