<svg xmlns="http://www.w3.org/2000/svg" width="39" height="40" viewBox="0 0 39 40" fill="none">
<path fill-rule="evenodd" clip-rule="evenodd" d="M32.9446 21.5527H38.4291C37.691 30.9336 30.1792 38.4102 20.7828 39.093L20.7828 33.6119C27.1614 32.9596 32.2397 27.9155 32.9446 21.5527ZM17.9724 33.6119C11.5938 32.9596 6.5155 27.9155 5.81053 21.5527H0.326098C1.06416 30.9337 8.57599 38.4102 17.9724 39.0931V33.6119ZM19.3776 0.921875C19.4247 0.921875 19.4719 0.922046 19.519 0.922387L19.2362 0.922387C19.2833 0.922046 19.3304 0.921875 19.3776 0.921875ZM0.309448 18.7422C0.942186 9.25412 8.49962 1.66117 17.9724 0.97275V6.45328C11.5172 7.11338 6.39374 12.2714 5.78704 18.7422H0.309448Z" fill="#FF3040"/>
<path d="M21.7252 21.8743L17.489 17.6381L28.4697 6.49022H20.8891V0.693359H38.7257V18.4742H32.6501V10.9494L21.7252 21.8743Z" fill="#FF3040"/>
</svg>